<svg xmlns="http://www.w3.org/2000/svg" xmlns:xlink="http://www.w3.org/1999/xlink" viewBox="0,0,256,256" width="64px" height="64px" fill-rule="none"><defs><linearGradient x1="23.249" y1="12.762" x2="22.844" y2="7.504" gradientUnits="userSpaceOnUse" id="color-1"><stop offset="0" stop-color="#e8e8e8"></stop><stop offset="0.464" stop-color="#ededed"></stop><stop offset="1" stop-color="#fafafb"></stop></linearGradient><linearGradient x1="27.478" y1="43.492" x2="25.961" y2="14.166" gradientUnits="userSpaceOnUse" id="color-2"><stop offset="0" stop-color="#e8e8e8"></stop><stop offset="0.464" stop-color="#ededed"></stop><stop offset="1" stop-color="#fafafb"></stop></linearGradient><linearGradient x1="21.65" y1="4.76" x2="26.605" y2="42.276" gradientUnits="userSpaceOnUse" id="color-3"><stop offset="0" stop-color="#000000"></stop><stop offset="1" stop-color="#000000"></stop></linearGradient></defs><g fill="none" fill-rule="none" stroke="none" stroke-width="none" stroke-linecap="butt" stroke-linejoin="miter" stroke-miterlimit="10" stroke-dasharray="" stroke-dashoffset="0" font-family="none" font-weight="none" font-size="none" text-anchor="none" style="mix-blend-mode: normal"><g transform="scale(5.33333,5.33333)"><path d="M11.553,11.139c1.232,1.001 1.694,0.925 4.008,0.77l21.812,-1.31c0.463,0 0.078,-0.461 -0.076,-0.538l-3.622,-2.619c-0.694,-0.539 -1.619,-1.156 -3.391,-1.002l-21.12,1.54c-0.77,0.076 -0.924,0.461 -0.617,0.77z" fill="url(#color-1)" fill-rule="evenodd" stroke="none" stroke-width="1"></path><path d="M12.862,16.222v22.95c0,1.233 0.616,1.695 2.004,1.619l23.971,-1.387c1.388,-0.076 1.543,-0.925 1.543,-1.927v-22.796c0,-1 -0.385,-1.54 -1.234,-1.463l-25.05,1.463c-0.925,0.077 -1.234,0.54 -1.234,1.541z" fill="url(#color-2)" fill-rule="evenodd" stroke="none" stroke-width="1"></path><path d="M11.553,11.139c1.232,1.001 1.694,0.925 4.008,0.77l21.812,-1.31c0.463,0 0.078,-0.461 -0.076,-0.538l-3.622,-2.619c-0.694,-0.539 -1.619,-1.156 -3.391,-1.002l-21.12,1.54c-0.77,0.076 -0.924,0.461 -0.617,0.77z" fill="none" fill-rule="nonzero" stroke="#000000" stroke-width="2" opacity="0.05"></path><path d="M11.553,11.139c1.232,1.001 1.694,0.925 4.008,0.77l21.812,-1.31c0.463,0 0.078,-0.461 -0.076,-0.538l-3.622,-2.619c-0.694,-0.539 -1.619,-1.156 -3.391,-1.002l-21.12,1.54c-0.77,0.076 -0.924,0.461 -0.617,0.77z" fill="none" fill-rule="nonzero" stroke="#000000" stroke-width="1" opacity="0.07"></path><path d="M12.862,16.222v22.95c0,1.233 0.616,1.695 2.004,1.619l23.971,-1.387c1.388,-0.076 1.543,-0.925 1.543,-1.927v-22.796c0,-1 -0.385,-1.54 -1.234,-1.463l-25.05,1.463c-0.925,0.077 -1.234,0.54 -1.234,1.541z" fill="none" fill-rule="nonzero" stroke="#000000" stroke-width="2" opacity="0.05"></path><path d="M12.862,16.222v22.95c0,1.233 0.616,1.695 2.004,1.619l23.971,-1.387c1.388,-0.076 1.543,-0.925 1.543,-1.927v-22.796c0,-1 -0.385,-1.54 -1.234,-1.463l-25.05,1.463c-0.925,0.077 -1.234,0.54 -1.234,1.541z" fill="none" fill-rule="nonzero" stroke="#000000" stroke-width="1" opacity="0.07"></path><path d="M11.553,11.139c1.232,1.001 1.694,0.925 4.008,0.77l21.812,-1.31c0.463,0 0.078,-0.461 -0.076,-0.538l-3.622,-2.619c-0.694,-0.539 -1.619,-1.156 -3.391,-1.002l-21.12,1.54c-0.77,0.076 -0.924,0.461 -0.617,0.77zM12.862,16.222v22.95c0,1.233 0.616,1.695 2.004,1.619l23.971,-1.387c1.388,-0.076 1.543,-0.925 1.543,-1.927v-22.796c0,-1 -0.385,-1.54 -1.234,-1.463l-25.05,1.463c-0.925,0.077 -1.234,0.54 -1.234,1.541zM36.526,17.453c0.154,0.694 0,1.387 -0.695,1.465l-1.155,0.23v16.943c-1.003,0.539 -1.928,0.847 -2.698,0.847c-1.234,0 -1.543,-0.385 -2.467,-1.54l-7.555,-11.86v11.475l2.391,0.539c0,0 0,1.386 -1.929,1.386l-5.317,0.308c-0.154,-0.308 0,-1.078 0.539,-1.232l1.388,-0.385v-15.171l-1.927,-0.154c-0.155,-0.694 0.23,-1.694 1.31,-1.772l5.704,-0.385l7.862,12.015v-10.629l-2.005,-0.23c-0.154,-0.848 0.462,-1.464 1.233,-1.54zM7.389,5.902l21.968,-1.618c2.698,-0.231 3.392,-0.076 5.087,1.155l7.013,4.929c1.157,0.848 1.543,1.078 1.543,2.002v27.032c0,1.694 -0.617,2.696 -2.775,2.849l-25.512,1.541c-1.62,0.077 -2.391,-0.154 -3.239,-1.232l-5.164,-6.7c-0.925,-1.233 -1.31,-2.156 -1.31,-3.235v-24.029c0,-1.385 0.617,-2.541 2.389,-2.694z" fill="url(#color-3)" fill-rule="evenodd" stroke="none" stroke-width="1"></path></g></g></svg>